<svg width="425" height="340" viewBox="0 0 425 340" fill="none" xmlns="http://www.w3.org/2000/svg">
<path d="M168.654 104.44H139.439V75H168.654V104.44ZM168.654 117.358H139.439V146.798H168.654V117.358ZM168.654 149.911H139.439V208.278H168.654V149.911ZM168.654 211.903H139.439V241.342H168.654V211.903ZM136.365 117.358H97.4202V146.798H136.365V117.358ZM297.786 117.358H214.256V146.798H270.119L297.786 117.358ZM274.741 146.798H327V117.358H302.408L274.741 146.798ZM243.47 240.831H327V211.391H271.137L243.47 240.831ZM266.537 211.391H214.278V240.831H238.87L266.537 211.391ZM136.365 211.903H97.4202V241.342H136.365V211.903ZM211.182 211.903H172.237V241.342H211.182V211.903ZM270.119 208.278L324.943 149.911L271.424 150.155L216.313 208.278H270.119ZM107.903 260.754C107.66 261.132 107.394 261.443 107.063 261.71C106.753 261.977 106.421 262.177 106.067 262.355C105.713 262.532 105.36 262.644 105.006 262.733C104.63 262.822 104.276 262.866 103.944 262.866C103.082 262.866 102.286 262.71 101.578 262.399C100.87 262.088 100.273 261.665 99.7865 261.132C99.3 260.598 98.924 259.975 98.6587 259.242C98.3933 258.508 98.2606 257.73 98.2606 256.885C98.2606 256.04 98.3933 255.262 98.6587 254.528C98.924 253.794 99.3 253.171 99.7865 252.638C100.273 252.104 100.87 251.682 101.578 251.37C102.286 251.059 103.06 250.903 103.944 250.903C104.63 250.903 105.293 251.059 105.935 251.348C106.576 251.637 107.129 252.104 107.527 252.749L108.544 251.882C107.947 251.126 107.262 250.57 106.465 250.259C105.669 249.925 104.829 249.769 103.922 249.769C102.905 249.769 101.954 249.947 101.113 250.303C100.251 250.659 99.5212 251.148 98.924 251.793C98.3269 252.415 97.8404 253.171 97.5087 254.039C97.1769 254.906 97 255.862 97 256.885C97 257.93 97.1769 258.886 97.5087 259.753C97.8404 260.62 98.3269 261.376 98.924 261.999C99.5212 262.621 100.251 263.111 101.113 263.466C101.976 263.822 102.905 264 103.922 264C104.939 264 105.824 263.8 106.664 263.422C107.505 263.044 108.257 262.399 108.898 261.532L107.881 260.754H107.903ZM110.38 263.666H111.685L113.211 260.064H120.31L121.769 263.666H123.163L117.523 250.147H116.24L110.38 263.666ZM119.845 258.908H113.697L116.815 251.504L119.845 258.908ZM126.015 263.666H127.276V257.24H129.598L133.38 263.666H134.795L130.881 257.174C131.257 257.129 131.633 257.04 132.031 256.907C132.429 256.774 132.805 256.596 133.137 256.329C133.468 256.062 133.756 255.728 133.977 255.306C134.198 254.884 134.309 254.35 134.309 253.705C134.309 253.127 134.22 252.616 134.021 252.215C133.822 251.815 133.601 251.459 133.291 251.192C133.004 250.926 132.672 250.726 132.296 250.57C131.92 250.436 131.566 250.325 131.213 250.259C130.859 250.192 130.527 250.147 130.217 250.147C129.908 250.147 129.664 250.147 129.487 250.147H125.971V263.666H126.015ZM127.254 251.281H129.908C130.571 251.281 131.102 251.37 131.5 251.526C131.92 251.682 132.23 251.904 132.451 252.149C132.672 252.393 132.827 252.66 132.915 252.927C133.004 253.194 133.048 253.46 133.048 253.683C133.048 253.905 133.004 254.172 132.915 254.439C132.827 254.728 132.672 254.972 132.451 255.217C132.23 255.462 131.898 255.662 131.5 255.84C131.08 255.995 130.549 256.084 129.908 256.084H127.254V251.259V251.281ZM141.253 263.666H142.513V251.281H147.091V250.125H136.675V251.281H141.253V263.666ZM150.055 263.666H151.315V257.24H153.638L157.419 263.666H158.835L154.92 257.174C155.296 257.129 155.672 257.04 156.07 256.907C156.468 256.774 156.844 256.596 157.176 256.329C157.508 256.062 157.795 255.728 158.016 255.306C158.238 254.884 158.348 254.35 158.348 253.705C158.348 253.127 158.26 252.616 158.061 252.215C157.862 251.815 157.64 251.459 157.331 251.192C157.043 250.926 156.712 250.726 156.336 250.57C155.96 250.436 155.606 250.325 155.252 250.259C154.898 250.192 154.566 250.147 154.257 250.147C153.947 250.147 153.704 250.147 153.527 250.147H150.011V263.666H150.055ZM151.315 251.281H153.969C154.633 251.281 155.163 251.37 155.562 251.526C155.982 251.682 156.291 251.904 156.513 252.149C156.734 252.393 156.888 252.66 156.977 252.927C157.065 253.194 157.11 253.46 157.11 253.683C157.11 253.905 157.065 254.172 156.977 254.439C156.888 254.728 156.734 254.972 156.513 255.217C156.291 255.462 155.96 255.662 155.562 255.84C155.141 255.995 154.611 256.084 153.969 256.084H151.315V251.259V251.281ZM162.218 263.666H163.479V250.147H162.218V263.666ZM167.88 263.666H172.038C173.21 263.666 174.183 263.533 175.001 263.244C175.819 262.955 176.483 262.599 177.013 262.154C177.544 261.71 177.964 261.221 178.274 260.665C178.584 260.131 178.805 259.597 178.96 259.108C179.114 258.619 179.203 258.152 179.225 257.752C179.269 257.352 179.291 257.063 179.291 256.907C179.291 256.751 179.291 256.462 179.225 256.062C179.181 255.662 179.092 255.217 178.96 254.706C178.805 254.216 178.584 253.683 178.274 253.149C177.964 252.616 177.544 252.104 177.013 251.659C176.483 251.215 175.797 250.837 175.001 250.57C174.183 250.281 173.21 250.147 172.038 250.147H167.88V263.666ZM169.118 251.281H171.706C172.59 251.281 173.409 251.393 174.183 251.615C174.957 251.837 175.62 252.171 176.195 252.638C176.77 253.105 177.213 253.683 177.544 254.394C177.876 255.106 178.031 255.929 178.031 256.907C178.031 257.885 177.876 258.708 177.544 259.42C177.213 260.131 176.77 260.709 176.195 261.176C175.62 261.643 174.957 261.977 174.183 262.199C173.409 262.421 172.59 262.532 171.706 262.532H169.118V251.304V251.281ZM194.064 256.351H189.597V257.507H192.826V262.043C192.317 262.355 191.742 262.555 191.101 262.666C190.46 262.777 189.796 262.844 189.066 262.844C188.204 262.844 187.408 262.688 186.7 262.377C185.992 262.066 185.395 261.643 184.909 261.109C184.422 260.576 184.046 259.953 183.781 259.219C183.515 258.486 183.383 257.707 183.383 256.862C183.383 256.018 183.515 255.239 183.781 254.506C184.046 253.772 184.422 253.149 184.909 252.616C185.395 252.082 185.992 251.659 186.7 251.348C187.408 251.037 188.182 250.881 189.066 250.881C189.442 250.881 189.796 250.926 190.194 251.015C190.57 251.104 190.946 251.215 191.278 251.348C191.632 251.504 191.941 251.682 192.251 251.882C192.538 252.082 192.804 252.326 193.003 252.549L193.91 251.593C192.693 250.348 191.079 249.725 189.066 249.725C188.049 249.725 187.098 249.903 186.258 250.259C185.395 250.614 184.665 251.104 184.068 251.748C183.471 252.371 182.985 253.127 182.653 253.994C182.321 254.861 182.144 255.817 182.144 256.84C182.144 257.863 182.321 258.819 182.653 259.686C182.985 260.554 183.471 261.31 184.068 261.932C184.665 262.555 185.395 263.044 186.258 263.4C187.12 263.755 188.049 263.933 189.066 263.933C189.929 263.933 190.791 263.844 191.632 263.666C192.472 263.489 193.29 263.177 194.064 262.71V256.284V256.351ZM198.642 263.666H207.157V262.51H199.903V257.24H206.427V256.084H199.903V251.259H206.847V250.103H198.642V263.622V263.666ZM215.804 261.954C216.335 262.688 216.976 263.222 217.728 263.533C218.48 263.844 219.298 264 220.183 264C220.736 264 221.244 263.911 221.753 263.755C222.262 263.6 222.704 263.355 223.08 263.022C223.456 262.688 223.765 262.31 224.009 261.821C224.252 261.332 224.34 260.798 224.34 260.198C224.34 259.353 224.163 258.708 223.832 258.219C223.5 257.73 223.058 257.374 222.549 257.107C222.04 256.84 221.488 256.618 220.89 256.462C220.293 256.307 219.74 256.129 219.232 255.906C218.723 255.684 218.303 255.417 217.949 255.039C217.595 254.661 217.44 254.15 217.44 253.483C217.44 253.06 217.529 252.682 217.684 252.349C217.838 252.037 218.06 251.771 218.347 251.548C218.613 251.348 218.944 251.17 219.298 251.081C219.674 250.97 220.05 250.926 220.448 250.926C221.023 250.926 221.532 251.037 221.952 251.259C222.372 251.482 222.748 251.815 223.058 252.26L224.141 251.482C223.677 250.881 223.146 250.436 222.527 250.17C221.908 249.903 221.222 249.769 220.492 249.769C219.917 249.769 219.387 249.858 218.856 250.014C218.347 250.17 217.883 250.414 217.485 250.726C217.087 251.037 216.777 251.437 216.534 251.882C216.29 252.349 216.18 252.882 216.18 253.483C216.18 254.128 216.268 254.661 216.467 255.084C216.666 255.506 216.932 255.884 217.263 256.173C217.595 256.462 217.971 256.685 218.369 256.862C218.789 257.04 219.21 257.196 219.63 257.329C220.072 257.463 220.492 257.618 220.89 257.752C221.311 257.885 221.664 258.063 221.996 258.263C222.328 258.463 222.593 258.708 222.792 259.019C222.991 259.331 223.08 259.709 223.08 260.176C223.08 260.576 222.991 260.954 222.837 261.265C222.682 261.599 222.461 261.865 222.195 262.088C221.93 262.31 221.598 262.488 221.244 262.621C220.868 262.755 220.492 262.822 220.072 262.822C219.409 262.822 218.812 262.688 218.281 262.399C217.75 262.11 217.33 261.688 216.998 261.109L215.804 261.91V261.954ZM227.724 259.753C228.056 260.62 228.542 261.376 229.139 261.999C229.737 262.621 230.466 263.111 231.329 263.466C232.191 263.822 233.12 264 234.137 264C235.155 264 236.106 263.822 236.946 263.466C237.809 263.111 238.538 262.621 239.136 261.999C239.733 261.376 240.219 260.62 240.551 259.753C240.883 258.886 241.06 257.93 241.06 256.907C241.06 255.884 240.883 254.928 240.551 254.061C240.219 253.194 239.733 252.438 239.136 251.815C238.538 251.192 237.809 250.681 236.946 250.325C236.084 249.97 235.155 249.792 234.137 249.792C233.12 249.792 232.169 249.97 231.329 250.325C230.466 250.681 229.737 251.17 229.139 251.815C228.542 252.438 228.056 253.194 227.724 254.061C227.392 254.928 227.215 255.884 227.215 256.907C227.215 257.93 227.392 258.886 227.724 259.753ZM228.852 254.55C229.117 253.816 229.493 253.194 229.98 252.66C230.466 252.126 231.063 251.704 231.771 251.393C232.479 251.081 233.253 250.926 234.137 250.926C235.022 250.926 235.796 251.081 236.504 251.393C237.212 251.704 237.809 252.126 238.295 252.66C238.782 253.194 239.158 253.816 239.423 254.55C239.688 255.284 239.821 256.062 239.821 256.907C239.821 257.752 239.688 258.53 239.423 259.264C239.158 259.998 238.782 260.62 238.295 261.154C237.809 261.688 237.212 262.11 236.504 262.421C235.796 262.733 235.022 262.888 234.137 262.888C233.253 262.888 232.479 262.733 231.771 262.421C231.063 262.11 230.466 261.688 229.98 261.154C229.493 260.62 229.117 259.998 228.852 259.264C228.587 258.53 228.454 257.752 228.454 256.907C228.454 256.062 228.587 255.284 228.852 254.55ZM244.797 263.666H252.294V262.51H246.036V250.125H244.775V263.644L244.797 263.666ZM264.723 250.125H263.462V258.152C263.462 258.641 263.418 259.153 263.33 259.709C263.241 260.264 263.064 260.776 262.799 261.243C262.534 261.71 262.18 262.11 261.693 262.399C261.229 262.71 260.588 262.866 259.813 262.866C259.039 262.866 258.398 262.71 257.934 262.399C257.469 262.088 257.093 261.71 256.828 261.243C256.562 260.776 256.386 260.264 256.297 259.709C256.209 259.153 256.164 258.641 256.164 258.152V250.125H254.904V258.463C254.904 259.197 254.992 259.886 255.147 260.554C255.302 261.221 255.589 261.799 255.965 262.31C256.341 262.822 256.85 263.222 257.491 263.533C258.111 263.844 258.885 264 259.791 264C260.698 264 261.472 263.844 262.091 263.533C262.711 263.222 263.219 262.822 263.617 262.31C263.993 261.799 264.281 261.221 264.436 260.554C264.59 259.886 264.679 259.197 264.679 258.463V250.125H264.723ZM272.021 263.666H273.282V251.281H277.86V250.125H267.443V251.281H272.021V263.666ZM280.845 263.666H282.106V250.147H280.845V263.666ZM286.308 259.753C286.639 260.62 287.126 261.376 287.723 261.999C288.32 262.621 289.05 263.111 289.913 263.466C290.775 263.822 291.704 264 292.721 264C293.738 264 294.689 263.822 295.53 263.466C296.392 263.111 297.122 262.621 297.719 261.999C298.316 261.376 298.803 260.62 299.135 259.753C299.466 258.886 299.643 257.93 299.643 256.907C299.643 255.884 299.466 254.928 299.135 254.061C298.803 253.194 298.316 252.438 297.719 251.815C297.122 251.192 296.392 250.681 295.53 250.325C294.667 249.97 293.738 249.792 292.721 249.792C291.704 249.792 290.753 249.97 289.913 250.325C289.05 250.681 288.32 251.17 287.723 251.815C287.126 252.438 286.639 253.194 286.308 254.061C285.976 254.928 285.799 255.884 285.799 256.907C285.799 257.93 285.976 258.886 286.308 259.753ZM287.458 254.55C287.723 253.816 288.099 253.194 288.586 252.66C289.072 252.126 289.669 251.704 290.377 251.393C291.085 251.081 291.859 250.926 292.743 250.926C293.628 250.926 294.402 251.081 295.11 251.393C295.817 251.704 296.414 252.126 296.901 252.66C297.388 253.194 297.763 253.816 298.029 254.55C298.294 255.284 298.427 256.062 298.427 256.907C298.427 257.752 298.294 258.53 298.029 259.264C297.763 259.998 297.388 260.62 296.901 261.154C296.414 261.688 295.817 262.11 295.11 262.421C294.402 262.733 293.628 262.888 292.743 262.888C291.859 262.888 291.085 262.733 290.377 262.421C289.669 262.11 289.072 261.688 288.586 261.154C288.099 260.62 287.723 259.998 287.458 259.264C287.192 258.53 287.06 257.752 287.06 256.907C287.06 256.062 287.192 255.284 287.458 254.55ZM303.403 263.666H304.663V251.815H304.708L312.868 263.666H314.483V250.147H313.222V261.999H313.178L305.017 250.147H303.403V263.666ZM318.22 261.954C318.751 262.688 319.392 263.222 320.144 263.533C320.896 263.844 321.714 264 322.599 264C323.152 264 323.661 263.911 324.169 263.755C324.678 263.6 325.12 263.355 325.496 263.022C325.872 262.688 326.182 262.31 326.425 261.821C326.668 261.332 326.757 260.798 326.757 260.198C326.757 259.353 326.58 258.708 326.248 258.219C325.916 257.73 325.474 257.374 324.965 257.107C324.457 256.84 323.904 256.618 323.307 256.462C322.71 256.307 322.157 256.129 321.648 255.906C321.139 255.684 320.719 255.417 320.365 255.039C320.012 254.661 319.857 254.15 319.857 253.483C319.857 253.06 319.945 252.682 320.1 252.349C320.255 252.037 320.476 251.771 320.763 251.548C321.029 251.348 321.361 251.17 321.714 251.081C322.09 250.97 322.466 250.926 322.864 250.926C323.439 250.926 323.948 251.037 324.368 251.259C324.788 251.482 325.164 251.815 325.474 252.26L326.558 251.482C326.093 250.881 325.563 250.436 324.943 250.17C324.324 249.903 323.638 249.769 322.909 249.769C322.334 249.769 321.803 249.858 321.272 250.014C320.763 250.17 320.299 250.414 319.901 250.726C319.503 251.037 319.193 251.437 318.95 251.882C318.707 252.349 318.596 252.882 318.596 253.483C318.596 254.128 318.685 254.661 318.884 255.084C319.083 255.506 319.348 255.884 319.68 256.173C320.012 256.462 320.388 256.685 320.786 256.862C321.206 257.04 321.626 257.196 322.046 257.329C322.488 257.463 322.909 257.618 323.307 257.752C323.727 257.885 324.081 258.063 324.413 258.263C324.744 258.463 325.01 258.708 325.209 259.019C325.408 259.331 325.496 259.709 325.496 260.176C325.496 260.576 325.408 260.954 325.253 261.265C325.098 261.599 324.877 261.865 324.612 262.088C324.346 262.31 324.014 262.488 323.661 262.621C323.285 262.755 322.909 262.822 322.488 262.822C321.825 262.822 321.228 262.688 320.697 262.399C320.166 262.11 319.746 261.688 319.414 261.109L318.22 261.91V261.954Z" fill="#787D85"/>
</svg>
